<svg width="24" height="24" viewBox="0 0 24 24" fill="none" xmlns="http://www.w3.org/2000/svg">
<path d="M2.68773 17.0244V20.7744H6.43773L17.4977 9.70443L13.7477 5.95443L2.68773 17.0244ZM22.2977 18.1344L18.0477 22.3844L12.8477 17.1844L14.6177 15.4144L15.6177 16.4144L18.0877 13.9344L19.5077 15.3544L18.0477 16.7744L19.1077 17.7744L20.5277 16.3744L22.2977 18.1344ZM6.29773 10.6044L1.07773 5.41443L5.32773 1.16443L7.08773 2.93443L4.61773 5.41443L5.68773 6.47443L8.14773 3.99443L9.56773 5.41443L8.14773 6.82443L9.14773 7.82443L6.29773 10.6044ZM20.3977 6.77443C20.7877 6.38443 20.7877 5.77443 20.3977 5.36443L18.0577 3.06443C17.6877 2.67443 17.0377 2.67443 16.6477 3.06443L14.8077 4.89443L18.5577 8.64443L20.3977 6.77443Z" fill="black"/>
</svg>
