<svg width="24" height="24" viewBox="0 0 24 24" fill="none" xmlns="http://www.w3.org/2000/svg">
<path d="M15.7497 12.1869C18.2497 12.1869 20.2497 14.1869 20.2497 16.6869C20.2497 17.5669 19.9997 18.3969 19.5597 19.0869L22.6397 22.1869L21.2497 23.5769L18.1297 20.5069C17.4397 20.9369 16.6197 21.1869 15.7497 21.1869C13.2497 21.1869 11.2497 19.1869 11.2497 16.6869C11.2497 14.1869 13.2497 12.1869 15.7497 12.1869ZM15.7497 14.1869C15.0867 14.1869 14.4508 14.4503 13.9819 14.9191C13.5131 15.388 13.2497 16.0238 13.2497 16.6869C13.2497 17.3499 13.5131 17.9858 13.9819 18.4547C14.4508 18.9235 15.0867 19.1869 15.7497 19.1869C16.4127 19.1869 17.0486 18.9235 17.5175 18.4547C17.9863 17.9858 18.2497 17.3499 18.2497 16.6869C18.2497 16.0238 17.9863 15.388 17.5175 14.9191C17.0486 14.4503 16.4127 14.1869 15.7497 14.1869ZM7.24969 15.1869V17.1869H9.24969C9.38969 18.7369 10.0497 20.1269 11.0597 21.1869H5.24969C4.13969 21.1869 3.24969 20.2869 3.24969 19.1869V5.18689C3.24969 4.07689 4.13969 3.18689 5.24969 3.18689H19.2497C19.7801 3.18689 20.2888 3.3976 20.6639 3.77268C21.039 4.14775 21.2497 4.65646 21.2497 5.18689V13.2169C20.0997 11.3969 18.0697 10.1869 15.7497 10.1869C14.4797 10.1869 13.2897 10.5569 12.2897 11.1869H7.24969V13.1869H10.2497C9.88969 13.7869 9.58969 14.4669 9.41969 15.1869H7.24969ZM17.2497 9.18689V7.18689H7.24969V9.18689H17.2497Z" fill="black"/>
</svg>
