<svg width="24" height="24" viewBox="0 0 24 24" fill="none" xmlns="http://www.w3.org/2000/svg">
<path d="M13.2497 8.78101H11.2497V6.78101H13.2497V8.78101ZM13.2497 16.781H11.2497V10.781H13.2497V16.781ZM12.2497 1.78101C10.9365 1.78101 9.63612 2.03966 8.42286 2.54221C7.2096 3.04476 6.10721 3.78135 5.17863 4.70994C3.30326 6.5853 2.24969 9.12884 2.24969 11.781C2.24969 14.4332 3.30326 16.9767 5.17863 18.8521C6.10721 19.7807 7.2096 20.5173 8.42286 21.0198C9.63612 21.5223 10.9365 21.781 12.2497 21.781C14.9019 21.781 17.4454 20.7274 19.3208 18.8521C21.1961 16.9767 22.2497 14.4332 22.2497 11.781C22.2497 10.4678 21.991 9.16743 21.4885 7.95417C20.9859 6.74092 20.2493 5.63852 19.3208 4.70994C18.3922 3.78135 17.2898 3.04476 16.0765 2.54221C14.8633 2.03966 13.5629 1.78101 12.2497 1.78101Z" fill="black"/>
</svg>
